<svg width="592" height="207" viewBox="0 0 592 207" fill="none" xmlns="http://www.w3.org/2000/svg">
<mask id="path-1-outside-1_2383_2040" maskUnits="userSpaceOnUse" x="0" y="0" width="592" height="207" fill="black">
<rect fill="white" width="592" height="207"/>
<path d="M437.8 205.612C430.161 204.65 420.883 201.935 414.99 198.928C413.458 198.144 411.193 197.503 409.96 197.503C407.872 197.503 407.751 197.367 408.193 195.543C410.088 187.698 410.544 186.871 416.665 180.458L420.812 176.112L422.85 177.565C425.793 179.66 429.512 181.085 434.123 181.891C436.339 182.275 439.83 182.924 441.883 183.33L445.609 184.057L447.847 191.318C451.31 202.562 451.766 202.519 451.445 191.011C451.181 181.292 451.203 181.114 452.699 181.114C453.54 181.114 456.048 180.473 458.279 179.689C460.509 178.905 462.554 178.264 462.818 178.264C463.088 178.264 465.81 180.344 468.874 182.895C471.938 185.446 474.724 187.527 475.066 187.527C475.401 187.527 475.038 186.487 474.254 185.211C472.045 181.627 469.152 175.656 469.152 174.687C469.152 174.209 471.069 171.765 473.413 169.257C475.765 166.749 478.173 163.742 478.779 162.573C480.047 160.122 481.038 160.001 489.482 161.255C492.709 161.739 495.161 161.804 495.545 161.419C495.93 161.034 494.013 159.488 490.807 157.599C487.843 155.854 485.128 153.88 484.772 153.21C484.358 152.44 484.508 149.968 485.185 146.426C487.052 136.672 486.524 129.304 483.354 120.739L481.708 116.299L485.94 111.853C495.467 101.834 498.46 99.0839 499.571 99.2977C502.443 99.8606 509.647 117.782 511.272 128.384C512.383 135.695 511.678 149.376 509.811 156.531C503.626 180.23 484.786 198.507 460.601 204.258C455.891 205.377 442.331 206.182 437.8 205.612ZM501.93 146.198C501.93 145.807 501.267 145.486 500.462 145.486C499.657 145.486 499.194 145.807 499.436 146.198C499.678 146.59 500.341 146.911 500.904 146.911C501.467 146.911 501.93 146.59 501.93 146.198ZM505.493 134.391C505.493 133.729 505.008 133.365 504.303 133.501C502.514 133.843 502.272 135.51 504.011 135.51C504.887 135.51 505.493 135.047 505.493 134.391ZM185.197 198.842C173.881 194.731 165.174 185.589 162.445 174.957C161.269 170.34 160.991 164.896 161.875 163.599C162.623 162.495 171.651 161.162 178.385 161.162H184.128L184.157 164.903C184.235 174.316 189.28 179.689 198.023 179.689C207.222 179.689 211.348 174.672 210.158 164.925C209.695 161.119 209.353 160.507 205.619 156.858C201.792 153.11 193.42 146.911 192.18 146.911C191.866 146.911 189.109 145.308 186.052 143.348C182.988 141.389 180.202 139.785 179.846 139.785C179.496 139.785 176.668 137.299 173.568 134.263C164.226 125.114 160.785 115.615 162.68 104.157C164.761 91.5165 175.114 80.8923 187.662 78.5123C196.662 76.8022 208.234 78.0563 214.982 81.4623C219.834 83.9135 226.141 89.9418 228.314 94.2029C230.872 99.2122 232.981 112.708 231.207 112.708C230.843 112.708 228.2 113.007 225.328 113.371C222.464 113.734 217.996 114.219 215.402 114.447L210.692 114.867L210.3 111.069C209.41 102.44 205.398 98.3856 197.225 97.8655C193.156 97.6089 192.415 97.78 190.185 99.483C187.285 101.692 185.774 104.314 185.147 108.212C183.85 116.349 188.567 121.359 208.711 133.237C223.077 141.709 229.39 148.785 232.176 159.538C234.976 170.34 231.919 181.705 224.124 189.508C217.198 196.434 209.36 199.477 196.954 200.047C190.498 200.346 188.888 200.182 185.197 198.842ZM1 138.702V79.0539L22.9112 79.3745C44.7156 79.688 44.851 79.7023 50.8792 81.7188C63.2422 85.8659 71.4794 95.514 73.6812 108.433C75.7618 120.625 75.7333 153.474 73.6242 167.924C71.7002 181.164 61.532 192.771 48.4921 196.612C45.6918 197.439 39.6422 197.774 22.9112 198.023L1 198.351V138.702ZM41.9152 176.276C46.3972 174.715 49.0123 171.48 50.6726 165.438C51.7699 161.454 51.9481 157.728 51.9481 138.717C51.9481 119.819 51.7699 116.057 50.7225 112.665C47.8366 103.352 44.5873 101.257 32.2885 100.751L23.8019 100.402V138.973V177.551L31.1057 177.523C36.0722 177.501 39.5281 177.102 41.9152 176.276ZM90.0701 138.717V79.2177H120.71H151.35V89.5499V99.882H132.467H113.585V113.955V128.028L130.059 127.821C144.994 127.636 146.491 127.729 146.092 128.776C145.849 129.41 145.65 134.071 145.65 139.13V148.336H129.617H113.585V162.765V177.195L132.467 176.995L151.35 176.796V187.506V198.215H120.71H90.0701V138.717ZM265.36 149.049V99.882H252.89H240.42V89.5499V79.2177H277.117H313.814V89.5499V99.882H301.344H288.874V149.049V198.215H277.117H265.36V149.049ZM323.077 138.717V79.2177L339.288 79.2249C348.202 79.2249 358.228 79.5455 361.556 79.9232C368.46 80.7141 381.7 84.9325 388.633 88.5523C391.184 89.8777 393.507 91.0747 393.799 91.2101C394.091 91.3384 394.333 90.2624 394.333 88.8159C394.333 86.9063 393.749 85.5097 392.21 83.7639C390.322 81.6048 390.186 81.1488 390.942 79.4885C391.683 77.8568 391.59 77.4649 390.193 76.3319C388.163 74.693 389.06 74.1586 391.868 75.3414C394.412 76.4103 419.9 98.9129 419.166 99.4402C419.031 99.54 417.235 101.165 415.183 103.046C411.52 106.409 411.406 106.459 409.126 105.525C407.851 105.005 405.385 103.687 403.647 102.597C401.915 101.507 400.39 100.709 400.269 100.83C400.148 100.951 401.053 104.05 402.278 107.706C404.181 113.371 404.359 114.475 403.497 115.138C402.934 115.565 402.592 116.478 402.734 117.162C403.255 119.705 400.875 119.264 398.217 116.328C396.777 114.732 395.388 113.421 395.139 113.421C394.882 113.421 394.797 114.946 394.939 116.805C395.131 119.356 395.794 120.917 397.618 123.161C398.944 124.793 400.034 126.396 400.034 126.724C400.034 127.38 395.416 131.235 394.625 131.235C393.884 131.235 392.388 133.337 390.386 137.227C388.212 141.439 382.341 148.365 379.79 149.726C378.771 150.267 377.944 151.315 377.944 152.049C377.944 153.566 377.424 153.616 391.483 150.802C395.986 149.904 399.784 149.27 399.913 149.405C400.041 149.533 400.497 151.899 400.925 154.657C402.086 162.16 401.167 164.454 394.255 171.216C391.148 174.252 388.861 176.896 389.16 177.081C389.467 177.266 391.512 176.09 393.713 174.459C407.608 164.176 408.442 163.656 409.653 164.554C410.637 165.281 414.998 171.758 414.998 172.492C414.998 172.82 412.988 175.941 410.53 179.418C408.072 182.895 405.314 186.95 404.409 188.418C403.511 189.886 402.499 191.09 402.179 191.09C401.851 191.09 399.15 188.475 396.179 185.268C393.2 182.069 390.771 179.646 390.771 179.881C390.771 180.123 392.509 184.342 394.633 189.266L398.488 198.215L385.547 198.208H372.6L367.356 183.423C364.463 175.292 361.149 166 359.981 162.765L357.857 156.887H351.872H345.879V177.551V198.215H334.478H323.077V138.717ZM363.223 134.84C365.617 133.928 368.553 130.75 370.163 127.316C371.175 125.157 371.503 122.834 371.496 117.696C371.496 111.661 371.289 110.549 369.558 107.421C368.489 105.497 366.814 103.331 365.831 102.618C363.551 100.958 357.786 99.882 351.124 99.882H345.879V117.696V135.51H353.668C357.957 135.51 362.254 135.211 363.223 134.84ZM538.271 175.584V152.946L529.079 130.159C524.019 117.618 517.578 101.749 514.756 94.8941C511.941 88.0393 509.469 81.7046 509.262 80.821L508.892 79.2177H520.592H532.292L535.007 86.8778C544.534 113.699 549.201 126.24 549.55 125.898C549.764 125.677 551.994 119.976 554.503 113.228C557.018 106.473 560.346 97.5804 561.906 93.469C563.467 89.3575 565.262 84.4622 565.897 82.6024L567.044 79.2177H579.022C585.613 79.2177 591 79.3959 591 79.6168C591 79.8377 589.753 82.638 588.228 85.8517C586.703 89.0582 583.939 95.3715 582.086 99.882C580.233 104.393 577.269 111.604 575.502 115.915C573.728 120.226 571.241 126.639 569.965 130.166C568.697 133.693 566.174 140.099 564.365 144.396L561.073 152.22V175.214V198.215H549.672H538.271V175.584ZM402.884 163.735C402.884 162.723 404.936 161.554 405.585 162.195C406.034 162.651 404.338 164.725 403.511 164.725C403.162 164.725 402.884 164.276 402.884 163.735ZM397.34 143.818C395.587 142.842 395.915 141.923 398.017 141.923C398.844 141.923 399.321 142.443 399.321 143.348C399.321 145.008 399.428 144.98 397.34 143.818ZM474.853 107.065C474.853 105.96 467.649 98.4569 466.587 98.4569C466.038 98.4569 465.589 98.1647 465.589 97.8084C465.589 96.362 485.142 79.1322 485.783 80.0087C485.897 80.1583 486.553 82.7663 487.251 85.8018C487.942 88.8373 488.805 91.5023 489.161 91.7232C489.524 91.9441 489.816 91.7232 489.816 91.2315C489.816 89.7779 490.992 91.3384 493.223 95.7705L495.282 99.8606L490.593 102.689C488.007 104.243 484.707 106.01 483.247 106.616C480.354 107.82 474.853 108.112 474.853 107.065ZM429.961 90.1413C429.969 83.9919 430.881 76.2392 432.498 68.679C432.99 66.4059 433.04 66.3774 434.401 67.6101C439.218 71.9639 439.218 77.8211 434.415 88.8373C433.218 91.5807 432.128 94.4381 431.992 95.1934C431.857 95.9416 431.344 96.6897 430.852 96.8536C430.182 97.0745 429.961 95.4356 429.961 90.1413ZM458.143 95.6708C457.915 95.2931 458.029 94.8014 458.4 94.5734C458.777 94.3454 459.269 94.4594 459.497 94.8299C459.725 95.2076 459.611 95.6993 459.241 95.9273C458.863 96.1553 458.371 96.0413 458.143 95.6708ZM447.775 95.4071C447.775 95.2005 449.058 92.9987 450.633 90.5118C454.017 85.1463 453.96 85.2674 454.509 81.9611C454.872 79.7664 455.165 79.4244 456.419 79.745C457.267 79.9731 458.15 79.7237 458.499 79.1608C458.827 78.6263 459.326 78.4197 459.611 78.6976C459.889 78.9826 458.784 80.7925 457.153 82.7236C455.521 84.6617 454.188 86.4859 454.188 86.7851C454.188 87.0915 455.029 88.2103 456.055 89.2791L457.922 91.2315L456.084 93.0628C455.079 94.0675 453.519 94.9012 452.621 94.9012C451.716 94.9083 450.262 95.1079 449.379 95.343C448.495 95.5781 447.775 95.6066 447.775 95.4071ZM463.509 80.4647C463.58 78.4054 464.093 73.1966 464.656 68.8856C465.91 59.2874 466.01 59.1734 478.644 52.5751C488.534 47.4162 490.244 46.9174 489.346 49.4684C488.712 51.2569 488.648 53.9219 489.132 58.2471L489.46 61.1472L477.475 72.6764C470.884 79.0182 465.012 84.2057 464.435 84.2057C463.623 84.2057 463.409 83.3435 463.509 80.4647ZM411.542 75.1348C409.269 73.2465 401.573 62.7647 400.775 60.4703C400.169 58.7388 400.241 58.525 401.302 58.8599C401.979 59.0737 403.44 58.7744 404.559 58.1901C405.677 57.6129 406.882 57.3136 407.231 57.5274C407.587 57.7483 407.872 57.5844 407.872 57.1711C407.872 55.3398 409.304 56.6581 409.96 59.0879C411.193 63.6626 413.601 75.8687 413.323 76.1395C413.181 76.282 412.375 75.8331 411.542 75.1348ZM425.486 74.9424C425.258 74.351 424.403 68.8999 423.584 62.8289C421.696 48.6988 419.658 36.2432 418.589 32.2956C418.133 30.5926 417.898 29.0535 418.069 28.8825C418.24 28.7115 422.152 29.2245 426.755 30.0226C431.365 30.8206 435.298 31.4762 435.498 31.4762C437.073 31.4762 429.391 70.9093 427.532 72.3629C426.976 72.8047 426.384 73.8023 426.213 74.5861C425.971 75.6977 425.814 75.7761 425.486 74.9424ZM447.775 72.4342C447.775 70.5459 450.889 60.6912 451.481 60.6912C451.794 60.6912 452.051 61.0332 452.051 61.4465C452.051 61.8598 452.336 62.0237 452.685 61.8099C453.027 61.5961 453.647 61.817 454.046 62.3016C454.566 62.9358 454.053 64.6673 452.25 68.3512C449.934 73.0969 447.775 75.0635 447.775 72.4342ZM378.657 62.608C368.745 58.2685 366.387 56.9146 367.591 56.2448C368.189 55.9099 368.681 55.2116 368.681 54.6985C368.681 54.1855 369.999 52.2687 371.61 50.4374L374.538 47.1098L379.191 54.7912C381.75 59.0167 384.329 63.0355 384.92 63.7196C386.581 65.6292 384.863 65.3228 378.657 62.608ZM504.78 56.3659C504.78 55.4539 508.763 49.5539 509.825 48.8983C510.231 48.6489 511.179 48.9838 511.92 49.6536C513.224 50.8365 513.139 50.979 509.426 54.0002C505.386 57.2923 504.78 57.5987 504.78 56.3659ZM457.039 37.3904C457.039 36.5639 460.566 18.6359 461.777 13.3059C462.397 10.5626 463.523 6.67196 464.271 4.65542L465.632 1L472.195 3.43694C475.8 4.78368 479.014 6.13756 479.335 6.45822C479.648 6.77174 478.53 8.7669 476.848 10.8761C471.311 17.8307 467.278 23.4599 462.661 30.6853C458.585 37.0627 457.039 38.9082 457.039 37.3904ZM385.918 22.9255C384.236 20.9659 382.305 19.3627 381.636 19.3627C379.704 19.3627 375.415 16.1063 373.854 13.4627L372.429 11.0471L374.111 9.68611C375.037 8.9308 376.519 7.72656 377.403 6.99975C379.277 5.47487 382.961 3.47257 383.289 3.8146C383.417 3.93574 384.792 8.37499 386.346 13.6622C390.756 28.6687 390.763 28.5476 385.918 22.9255Z"/>
</mask>
<path d="M437.8 205.612C430.161 204.65 420.883 201.935 414.99 198.928C413.458 198.144 411.193 197.503 409.96 197.503C407.872 197.503 407.751 197.367 408.193 195.543C410.088 187.698 410.544 186.871 416.665 180.458L420.812 176.112L422.85 177.565C425.793 179.66 429.512 181.085 434.123 181.891C436.339 182.275 439.83 182.924 441.883 183.33L445.609 184.057L447.847 191.318C451.31 202.562 451.766 202.519 451.445 191.011C451.181 181.292 451.203 181.114 452.699 181.114C453.54 181.114 456.048 180.473 458.279 179.689C460.509 178.905 462.554 178.264 462.818 178.264C463.088 178.264 465.81 180.344 468.874 182.895C471.938 185.446 474.724 187.527 475.066 187.527C475.401 187.527 475.038 186.487 474.254 185.211C472.045 181.627 469.152 175.656 469.152 174.687C469.152 174.209 471.069 171.765 473.413 169.257C475.765 166.749 478.173 163.742 478.779 162.573C480.047 160.122 481.038 160.001 489.482 161.255C492.709 161.739 495.161 161.804 495.545 161.419C495.93 161.034 494.013 159.488 490.807 157.599C487.843 155.854 485.128 153.88 484.772 153.21C484.358 152.44 484.508 149.968 485.185 146.426C487.052 136.672 486.524 129.304 483.354 120.739L481.708 116.299L485.94 111.853C495.467 101.834 498.46 99.0839 499.571 99.2977C502.443 99.8606 509.647 117.782 511.272 128.384C512.383 135.695 511.678 149.376 509.811 156.531C503.626 180.23 484.786 198.507 460.601 204.258C455.891 205.377 442.331 206.182 437.8 205.612ZM501.93 146.198C501.93 145.807 501.267 145.486 500.462 145.486C499.657 145.486 499.194 145.807 499.436 146.198C499.678 146.59 500.341 146.911 500.904 146.911C501.467 146.911 501.93 146.59 501.93 146.198ZM505.493 134.391C505.493 133.729 505.008 133.365 504.303 133.501C502.514 133.843 502.272 135.51 504.011 135.51C504.887 135.51 505.493 135.047 505.493 134.391ZM185.197 198.842C173.881 194.731 165.174 185.589 162.445 174.957C161.269 170.34 160.991 164.896 161.875 163.599C162.623 162.495 171.651 161.162 178.385 161.162H184.128L184.157 164.903C184.235 174.316 189.28 179.689 198.023 179.689C207.222 179.689 211.348 174.672 210.158 164.925C209.695 161.119 209.353 160.507 205.619 156.858C201.792 153.11 193.42 146.911 192.18 146.911C191.866 146.911 189.109 145.308 186.052 143.348C182.988 141.389 180.202 139.785 179.846 139.785C179.496 139.785 176.668 137.299 173.568 134.263C164.226 125.114 160.785 115.615 162.68 104.157C164.761 91.5165 175.114 80.8923 187.662 78.5123C196.662 76.8022 208.234 78.0563 214.982 81.4623C219.834 83.9135 226.141 89.9418 228.314 94.2029C230.872 99.2122 232.981 112.708 231.207 112.708C230.843 112.708 228.2 113.007 225.328 113.371C222.464 113.734 217.996 114.219 215.402 114.447L210.692 114.867L210.3 111.069C209.41 102.44 205.398 98.3856 197.225 97.8655C193.156 97.6089 192.415 97.78 190.185 99.483C187.285 101.692 185.774 104.314 185.147 108.212C183.85 116.349 188.567 121.359 208.711 133.237C223.077 141.709 229.39 148.785 232.176 159.538C234.976 170.34 231.919 181.705 224.124 189.508C217.198 196.434 209.36 199.477 196.954 200.047C190.498 200.346 188.888 200.182 185.197 198.842ZM1 138.702V79.0539L22.9112 79.3745C44.7156 79.688 44.851 79.7023 50.8792 81.7188C63.2422 85.8659 71.4794 95.514 73.6812 108.433C75.7618 120.625 75.7333 153.474 73.6242 167.924C71.7002 181.164 61.532 192.771 48.4921 196.612C45.6918 197.439 39.6422 197.774 22.9112 198.023L1 198.351V138.702ZM41.9152 176.276C46.3972 174.715 49.0123 171.48 50.6726 165.438C51.7699 161.454 51.9481 157.728 51.9481 138.717C51.9481 119.819 51.7699 116.057 50.7225 112.665C47.8366 103.352 44.5873 101.257 32.2885 100.751L23.8019 100.402V138.973V177.551L31.1057 177.523C36.0722 177.501 39.5281 177.102 41.9152 176.276ZM90.0701 138.717V79.2177H120.71H151.35V89.5499V99.882H132.467H113.585V113.955V128.028L130.059 127.821C144.994 127.636 146.491 127.729 146.092 128.776C145.849 129.41 145.65 134.071 145.65 139.13V148.336H129.617H113.585V162.765V177.195L132.467 176.995L151.35 176.796V187.506V198.215H120.71H90.0701V138.717ZM265.36 149.049V99.882H252.89H240.42V89.5499V79.2177H277.117H313.814V89.5499V99.882H301.344H288.874V149.049V198.215H277.117H265.36V149.049ZM323.077 138.717V79.2177L339.288 79.2249C348.202 79.2249 358.228 79.5455 361.556 79.9232C368.46 80.7141 381.7 84.9325 388.633 88.5523C391.184 89.8777 393.507 91.0747 393.799 91.2101C394.091 91.3384 394.333 90.2624 394.333 88.8159C394.333 86.9063 393.749 85.5097 392.21 83.7639C390.322 81.6048 390.186 81.1488 390.942 79.4885C391.683 77.8568 391.59 77.4649 390.193 76.3319C388.163 74.693 389.06 74.1586 391.868 75.3414C394.412 76.4103 419.9 98.9129 419.166 99.4402C419.031 99.54 417.235 101.165 415.183 103.046C411.52 106.409 411.406 106.459 409.126 105.525C407.851 105.005 405.385 103.687 403.647 102.597C401.915 101.507 400.39 100.709 400.269 100.83C400.148 100.951 401.053 104.05 402.278 107.706C404.181 113.371 404.359 114.475 403.497 115.138C402.934 115.565 402.592 116.478 402.734 117.162C403.255 119.705 400.875 119.264 398.217 116.328C396.777 114.732 395.388 113.421 395.139 113.421C394.882 113.421 394.797 114.946 394.939 116.805C395.131 119.356 395.794 120.917 397.618 123.161C398.944 124.793 400.034 126.396 400.034 126.724C400.034 127.38 395.416 131.235 394.625 131.235C393.884 131.235 392.388 133.337 390.386 137.227C388.212 141.439 382.341 148.365 379.79 149.726C378.771 150.267 377.944 151.315 377.944 152.049C377.944 153.566 377.424 153.616 391.483 150.802C395.986 149.904 399.784 149.27 399.913 149.405C400.041 149.533 400.497 151.899 400.925 154.657C402.086 162.16 401.167 164.454 394.255 171.216C391.148 174.252 388.861 176.896 389.16 177.081C389.467 177.266 391.512 176.09 393.713 174.459C407.608 164.176 408.442 163.656 409.653 164.554C410.637 165.281 414.998 171.758 414.998 172.492C414.998 172.82 412.988 175.941 410.53 179.418C408.072 182.895 405.314 186.95 404.409 188.418C403.511 189.886 402.499 191.09 402.179 191.09C401.851 191.09 399.15 188.475 396.179 185.268C393.2 182.069 390.771 179.646 390.771 179.881C390.771 180.123 392.509 184.342 394.633 189.266L398.488 198.215L385.547 198.208H372.6L367.356 183.423C364.463 175.292 361.149 166 359.981 162.765L357.857 156.887H351.872H345.879V177.551V198.215H334.478H323.077V138.717ZM363.223 134.84C365.617 133.928 368.553 130.75 370.163 127.316C371.175 125.157 371.503 122.834 371.496 117.696C371.496 111.661 371.289 110.549 369.558 107.421C368.489 105.497 366.814 103.331 365.831 102.618C363.551 100.958 357.786 99.882 351.124 99.882H345.879V117.696V135.51H353.668C357.957 135.51 362.254 135.211 363.223 134.84ZM538.271 175.584V152.946L529.079 130.159C524.019 117.618 517.578 101.749 514.756 94.8941C511.941 88.0393 509.469 81.7046 509.262 80.821L508.892 79.2177H520.592H532.292L535.007 86.8778C544.534 113.699 549.201 126.24 549.55 125.898C549.764 125.677 551.994 119.976 554.503 113.228C557.018 106.473 560.346 97.5804 561.906 93.469C563.467 89.3575 565.262 84.4622 565.897 82.6024L567.044 79.2177H579.022C585.613 79.2177 591 79.3959 591 79.6168C591 79.8377 589.753 82.638 588.228 85.8517C586.703 89.0582 583.939 95.3715 582.086 99.882C580.233 104.393 577.269 111.604 575.502 115.915C573.728 120.226 571.241 126.639 569.965 130.166C568.697 133.693 566.174 140.099 564.365 144.396L561.073 152.22V175.214V198.215H549.672H538.271V175.584ZM402.884 163.735C402.884 162.723 404.936 161.554 405.585 162.195C406.034 162.651 404.338 164.725 403.511 164.725C403.162 164.725 402.884 164.276 402.884 163.735ZM397.34 143.818C395.587 142.842 395.915 141.923 398.017 141.923C398.844 141.923 399.321 142.443 399.321 143.348C399.321 145.008 399.428 144.98 397.34 143.818ZM474.853 107.065C474.853 105.96 467.649 98.4569 466.587 98.4569C466.038 98.4569 465.589 98.1647 465.589 97.8084C465.589 96.362 485.142 79.1322 485.783 80.0087C485.897 80.1583 486.553 82.7663 487.251 85.8018C487.942 88.8373 488.805 91.5023 489.161 91.7232C489.524 91.9441 489.816 91.7232 489.816 91.2315C489.816 89.7779 490.992 91.3384 493.223 95.7705L495.282 99.8606L490.593 102.689C488.007 104.243 484.707 106.01 483.247 106.616C480.354 107.82 474.853 108.112 474.853 107.065ZM429.961 90.1413C429.969 83.9919 430.881 76.2392 432.498 68.679C432.99 66.4059 433.04 66.3774 434.401 67.6101C439.218 71.9639 439.218 77.8211 434.415 88.8373C433.218 91.5807 432.128 94.4381 431.992 95.1934C431.857 95.9416 431.344 96.6897 430.852 96.8536C430.182 97.0745 429.961 95.4356 429.961 90.1413ZM458.143 95.6708C457.915 95.2931 458.029 94.8014 458.4 94.5734C458.777 94.3454 459.269 94.4594 459.497 94.8299C459.725 95.2076 459.611 95.6993 459.241 95.9273C458.863 96.1553 458.371 96.0413 458.143 95.6708ZM447.775 95.4071C447.775 95.2005 449.058 92.9987 450.633 90.5118C454.017 85.1463 453.96 85.2674 454.509 81.9611C454.872 79.7664 455.165 79.4244 456.419 79.745C457.267 79.9731 458.15 79.7237 458.499 79.1608C458.827 78.6263 459.326 78.4197 459.611 78.6976C459.889 78.9826 458.784 80.7925 457.153 82.7236C455.521 84.6617 454.188 86.4859 454.188 86.7851C454.188 87.0915 455.029 88.2103 456.055 89.2791L457.922 91.2315L456.084 93.0628C455.079 94.0675 453.519 94.9012 452.621 94.9012C451.716 94.9083 450.262 95.1079 449.379 95.343C448.495 95.5781 447.775 95.6066 447.775 95.4071ZM463.509 80.4647C463.58 78.4054 464.093 73.1966 464.656 68.8856C465.91 59.2874 466.01 59.1734 478.644 52.5751C488.534 47.4162 490.244 46.9174 489.346 49.4684C488.712 51.2569 488.648 53.9219 489.132 58.2471L489.46 61.1472L477.475 72.6764C470.884 79.0182 465.012 84.2057 464.435 84.2057C463.623 84.2057 463.409 83.3435 463.509 80.4647ZM411.542 75.1348C409.269 73.2465 401.573 62.7647 400.775 60.4703C400.169 58.7388 400.241 58.525 401.302 58.8599C401.979 59.0737 403.44 58.7744 404.559 58.1901C405.677 57.6129 406.882 57.3136 407.231 57.5274C407.587 57.7483 407.872 57.5844 407.872 57.1711C407.872 55.3398 409.304 56.6581 409.96 59.0879C411.193 63.6626 413.601 75.8687 413.323 76.1395C413.181 76.282 412.375 75.8331 411.542 75.1348ZM425.486 74.9424C425.258 74.351 424.403 68.8999 423.584 62.8289C421.696 48.6988 419.658 36.2432 418.589 32.2956C418.133 30.5926 417.898 29.0535 418.069 28.8825C418.24 28.7115 422.152 29.2245 426.755 30.0226C431.365 30.8206 435.298 31.4762 435.498 31.4762C437.073 31.4762 429.391 70.9093 427.532 72.3629C426.976 72.8047 426.384 73.8023 426.213 74.5861C425.971 75.6977 425.814 75.7761 425.486 74.9424ZM447.775 72.4342C447.775 70.5459 450.889 60.6912 451.481 60.6912C451.794 60.6912 452.051 61.0332 452.051 61.4465C452.051 61.8598 452.336 62.0237 452.685 61.8099C453.027 61.5961 453.647 61.817 454.046 62.3016C454.566 62.9358 454.053 64.6673 452.25 68.3512C449.934 73.0969 447.775 75.0635 447.775 72.4342ZM378.657 62.608C368.745 58.2685 366.387 56.9146 367.591 56.2448C368.189 55.9099 368.681 55.2116 368.681 54.6985C368.681 54.1855 369.999 52.2687 371.61 50.4374L374.538 47.1098L379.191 54.7912C381.75 59.0167 384.329 63.0355 384.92 63.7196C386.581 65.6292 384.863 65.3228 378.657 62.608ZM504.78 56.3659C504.78 55.4539 508.763 49.5539 509.825 48.8983C510.231 48.6489 511.179 48.9838 511.92 49.6536C513.224 50.8365 513.139 50.979 509.426 54.0002C505.386 57.2923 504.78 57.5987 504.78 56.3659ZM457.039 37.3904C457.039 36.5639 460.566 18.6359 461.777 13.3059C462.397 10.5626 463.523 6.67196 464.271 4.65542L465.632 1L472.195 3.43694C475.8 4.78368 479.014 6.13756 479.335 6.45822C479.648 6.77174 478.53 8.7669 476.848 10.8761C471.311 17.8307 467.278 23.4599 462.661 30.6853C458.585 37.0627 457.039 38.9082 457.039 37.3904ZM385.918 22.9255C384.236 20.9659 382.305 19.3627 381.636 19.3627C379.704 19.3627 375.415 16.1063 373.854 13.4627L372.429 11.0471L374.111 9.68611C375.037 8.9308 376.519 7.72656 377.403 6.99975C379.277 5.47487 382.961 3.47257 383.289 3.8146C383.417 3.93574 384.792 8.37499 386.346 13.6622C390.756 28.6687 390.763 28.5476 385.918 22.9255Z" fill="black"/>
<path d="M437.8 205.612C430.161 204.65 420.883 201.935 414.99 198.928C413.458 198.144 411.193 197.503 409.96 197.503C407.872 197.503 407.751 197.367 408.193 195.543C410.088 187.698 410.544 186.871 416.665 180.458L420.812 176.112L422.85 177.565C425.793 179.66 429.512 181.085 434.123 181.891C436.339 182.275 439.83 182.924 441.883 183.33L445.609 184.057L447.847 191.318C451.31 202.562 451.766 202.519 451.445 191.011C451.181 181.292 451.203 181.114 452.699 181.114C453.54 181.114 456.048 180.473 458.279 179.689C460.509 178.905 462.554 178.264 462.818 178.264C463.088 178.264 465.81 180.344 468.874 182.895C471.938 185.446 474.724 187.527 475.066 187.527C475.401 187.527 475.038 186.487 474.254 185.211C472.045 181.627 469.152 175.656 469.152 174.687C469.152 174.209 471.069 171.765 473.413 169.257C475.765 166.749 478.173 163.742 478.779 162.573C480.047 160.122 481.038 160.001 489.482 161.255C492.709 161.739 495.161 161.804 495.545 161.419C495.93 161.034 494.013 159.488 490.807 157.599C487.843 155.854 485.128 153.88 484.772 153.21C484.358 152.44 484.508 149.968 485.185 146.426C487.052 136.672 486.524 129.304 483.354 120.739L481.708 116.299L485.94 111.853C495.467 101.834 498.46 99.0839 499.571 99.2977C502.443 99.8606 509.647 117.782 511.272 128.384C512.383 135.695 511.678 149.376 509.811 156.531C503.626 180.23 484.786 198.507 460.601 204.258C455.891 205.377 442.331 206.182 437.8 205.612ZM501.93 146.198C501.93 145.807 501.267 145.486 500.462 145.486C499.657 145.486 499.194 145.807 499.436 146.198C499.678 146.59 500.341 146.911 500.904 146.911C501.467 146.911 501.93 146.59 501.93 146.198ZM505.493 134.391C505.493 133.729 505.008 133.365 504.303 133.501C502.514 133.843 502.272 135.51 504.011 135.51C504.887 135.51 505.493 135.047 505.493 134.391ZM185.197 198.842C173.881 194.731 165.174 185.589 162.445 174.957C161.269 170.34 160.991 164.896 161.875 163.599C162.623 162.495 171.651 161.162 178.385 161.162H184.128L184.157 164.903C184.235 174.316 189.28 179.689 198.023 179.689C207.222 179.689 211.348 174.672 210.158 164.925C209.695 161.119 209.353 160.507 205.619 156.858C201.792 153.11 193.42 146.911 192.18 146.911C191.866 146.911 189.109 145.308 186.052 143.348C182.988 141.389 180.202 139.785 179.846 139.785C179.496 139.785 176.668 137.299 173.568 134.263C164.226 125.114 160.785 115.615 162.68 104.157C164.761 91.5165 175.114 80.8923 187.662 78.5123C196.662 76.8022 208.234 78.0563 214.982 81.4623C219.834 83.9135 226.141 89.9418 228.314 94.2029C230.872 99.2122 232.981 112.708 231.207 112.708C230.843 112.708 228.2 113.007 225.328 113.371C222.464 113.734 217.996 114.219 215.402 114.447L210.692 114.867L210.3 111.069C209.41 102.44 205.398 98.3856 197.225 97.8655C193.156 97.6089 192.415 97.78 190.185 99.483C187.285 101.692 185.774 104.314 185.147 108.212C183.85 116.349 188.567 121.359 208.711 133.237C223.077 141.709 229.39 148.785 232.176 159.538C234.976 170.34 231.919 181.705 224.124 189.508C217.198 196.434 209.36 199.477 196.954 200.047C190.498 200.346 188.888 200.182 185.197 198.842ZM1 138.702V79.0539L22.9112 79.3745C44.7156 79.688 44.851 79.7023 50.8792 81.7188C63.2422 85.8659 71.4794 95.514 73.6812 108.433C75.7618 120.625 75.7333 153.474 73.6242 167.924C71.7002 181.164 61.532 192.771 48.4921 196.612C45.6918 197.439 39.6422 197.774 22.9112 198.023L1 198.351V138.702ZM41.9152 176.276C46.3972 174.715 49.0123 171.48 50.6726 165.438C51.7699 161.454 51.9481 157.728 51.9481 138.717C51.9481 119.819 51.7699 116.057 50.7225 112.665C47.8366 103.352 44.5873 101.257 32.2885 100.751L23.8019 100.402V138.973V177.551L31.1057 177.523C36.0722 177.501 39.5281 177.102 41.9152 176.276ZM90.0701 138.717V79.2177H120.71H151.35V89.5499V99.882H132.467H113.585V113.955V128.028L130.059 127.821C144.994 127.636 146.491 127.729 146.092 128.776C145.849 129.41 145.65 134.071 145.65 139.13V148.336H129.617H113.585V162.765V177.195L132.467 176.995L151.35 176.796V187.506V198.215H120.71H90.0701V138.717ZM265.36 149.049V99.882H252.89H240.42V89.5499V79.2177H277.117H313.814V89.5499V99.882H301.344H288.874V149.049V198.215H277.117H265.36V149.049ZM323.077 138.717V79.2177L339.288 79.2249C348.202 79.2249 358.228 79.5455 361.556 79.9232C368.46 80.7141 381.7 84.9325 388.633 88.5523C391.184 89.8777 393.507 91.0747 393.799 91.2101C394.091 91.3384 394.333 90.2624 394.333 88.8159C394.333 86.9063 393.749 85.5097 392.21 83.7639C390.322 81.6048 390.186 81.1488 390.942 79.4885C391.683 77.8568 391.59 77.4649 390.193 76.3319C388.163 74.693 389.06 74.1586 391.868 75.3414C394.412 76.4103 419.9 98.9129 419.166 99.4402C419.031 99.54 417.235 101.165 415.183 103.046C411.52 106.409 411.406 106.459 409.126 105.525C407.851 105.005 405.385 103.687 403.647 102.597C401.915 101.507 400.39 100.709 400.269 100.83C400.148 100.951 401.053 104.05 402.278 107.706C404.181 113.371 404.359 114.475 403.497 115.138C402.934 115.565 402.592 116.478 402.734 117.162C403.255 119.705 400.875 119.264 398.217 116.328C396.777 114.732 395.388 113.421 395.139 113.421C394.882 113.421 394.797 114.946 394.939 116.805C395.131 119.356 395.794 120.917 397.618 123.161C398.944 124.793 400.034 126.396 400.034 126.724C400.034 127.38 395.416 131.235 394.625 131.235C393.884 131.235 392.388 133.337 390.386 137.227C388.212 141.439 382.341 148.365 379.79 149.726C378.771 150.267 377.944 151.315 377.944 152.049C377.944 153.566 377.424 153.616 391.483 150.802C395.986 149.904 399.784 149.27 399.913 149.405C400.041 149.533 400.497 151.899 400.925 154.657C402.086 162.16 401.167 164.454 394.255 171.216C391.148 174.252 388.861 176.896 389.16 177.081C389.467 177.266 391.512 176.09 393.713 174.459C407.608 164.176 408.442 163.656 409.653 164.554C410.637 165.281 414.998 171.758 414.998 172.492C414.998 172.82 412.988 175.941 410.53 179.418C408.072 182.895 405.314 186.95 404.409 188.418C403.511 189.886 402.499 191.09 402.179 191.09C401.851 191.09 399.15 188.475 396.179 185.268C393.2 182.069 390.771 179.646 390.771 179.881C390.771 180.123 392.509 184.342 394.633 189.266L398.488 198.215L385.547 198.208H372.6L367.356 183.423C364.463 175.292 361.149 166 359.981 162.765L357.857 156.887H351.872H345.879V177.551V198.215H334.478H323.077V138.717ZM363.223 134.84C365.617 133.928 368.553 130.75 370.163 127.316C371.175 125.157 371.503 122.834 371.496 117.696C371.496 111.661 371.289 110.549 369.558 107.421C368.489 105.497 366.814 103.331 365.831 102.618C363.551 100.958 357.786 99.882 351.124 99.882H345.879V117.696V135.51H353.668C357.957 135.51 362.254 135.211 363.223 134.84ZM538.271 175.584V152.946L529.079 130.159C524.019 117.618 517.578 101.749 514.756 94.8941C511.941 88.0393 509.469 81.7046 509.262 80.821L508.892 79.2177H520.592H532.292L535.007 86.8778C544.534 113.699 549.201 126.24 549.55 125.898C549.764 125.677 551.994 119.976 554.503 113.228C557.018 106.473 560.346 97.5804 561.906 93.469C563.467 89.3575 565.262 84.4622 565.897 82.6024L567.044 79.2177H579.022C585.613 79.2177 591 79.3959 591 79.6168C591 79.8377 589.753 82.638 588.228 85.8517C586.703 89.0582 583.939 95.3715 582.086 99.882C580.233 104.393 577.269 111.604 575.502 115.915C573.728 120.226 571.241 126.639 569.965 130.166C568.697 133.693 566.174 140.099 564.365 144.396L561.073 152.22V175.214V198.215H549.672H538.271V175.584ZM402.884 163.735C402.884 162.723 404.936 161.554 405.585 162.195C406.034 162.651 404.338 164.725 403.511 164.725C403.162 164.725 402.884 164.276 402.884 163.735ZM397.34 143.818C395.587 142.842 395.915 141.923 398.017 141.923C398.844 141.923 399.321 142.443 399.321 143.348C399.321 145.008 399.428 144.98 397.34 143.818ZM474.853 107.065C474.853 105.96 467.649 98.4569 466.587 98.4569C466.038 98.4569 465.589 98.1647 465.589 97.8084C465.589 96.362 485.142 79.1322 485.783 80.0087C485.897 80.1583 486.553 82.7663 487.251 85.8018C487.942 88.8373 488.805 91.5023 489.161 91.7232C489.524 91.9441 489.816 91.7232 489.816 91.2315C489.816 89.7779 490.992 91.3384 493.223 95.7705L495.282 99.8606L490.593 102.689C488.007 104.243 484.707 106.01 483.247 106.616C480.354 107.82 474.853 108.112 474.853 107.065ZM429.961 90.1413C429.969 83.9919 430.881 76.2392 432.498 68.679C432.99 66.4059 433.04 66.3774 434.401 67.6101C439.218 71.9639 439.218 77.8211 434.415 88.8373C433.218 91.5807 432.128 94.4381 431.992 95.1934C431.857 95.9416 431.344 96.6897 430.852 96.8536C430.182 97.0745 429.961 95.4356 429.961 90.1413ZM458.143 95.6708C457.915 95.2931 458.029 94.8014 458.4 94.5734C458.777 94.3454 459.269 94.4594 459.497 94.8299C459.725 95.2076 459.611 95.6993 459.241 95.9273C458.863 96.1553 458.371 96.0413 458.143 95.6708ZM447.775 95.4071C447.775 95.2005 449.058 92.9987 450.633 90.5118C454.017 85.1463 453.96 85.2674 454.509 81.9611C454.872 79.7664 455.165 79.4244 456.419 79.745C457.267 79.9731 458.15 79.7237 458.499 79.1608C458.827 78.6263 459.326 78.4197 459.611 78.6976C459.889 78.9826 458.784 80.7925 457.153 82.7236C455.521 84.6617 454.188 86.4859 454.188 86.7851C454.188 87.0915 455.029 88.2103 456.055 89.2791L457.922 91.2315L456.084 93.0628C455.079 94.0675 453.519 94.9012 452.621 94.9012C451.716 94.9083 450.262 95.1079 449.379 95.343C448.495 95.5781 447.775 95.6066 447.775 95.4071ZM463.509 80.4647C463.58 78.4054 464.093 73.1966 464.656 68.8856C465.91 59.2874 466.01 59.1734 478.644 52.5751C488.534 47.4162 490.244 46.9174 489.346 49.4684C488.712 51.2569 488.648 53.9219 489.132 58.2471L489.46 61.1472L477.475 72.6764C470.884 79.0182 465.012 84.2057 464.435 84.2057C463.623 84.2057 463.409 83.3435 463.509 80.4647ZM411.542 75.1348C409.269 73.2465 401.573 62.7647 400.775 60.4703C400.169 58.7388 400.241 58.525 401.302 58.8599C401.979 59.0737 403.44 58.7744 404.559 58.1901C405.677 57.6129 406.882 57.3136 407.231 57.5274C407.587 57.7483 407.872 57.5844 407.872 57.1711C407.872 55.3398 409.304 56.6581 409.96 59.0879C411.193 63.6626 413.601 75.8687 413.323 76.1395C413.181 76.282 412.375 75.8331 411.542 75.1348ZM425.486 74.9424C425.258 74.351 424.403 68.8999 423.584 62.8289C421.696 48.6988 419.658 36.2432 418.589 32.2956C418.133 30.5926 417.898 29.0535 418.069 28.8825C418.24 28.7115 422.152 29.2245 426.755 30.0226C431.365 30.8206 435.298 31.4762 435.498 31.4762C437.073 31.4762 429.391 70.9093 427.532 72.3629C426.976 72.8047 426.384 73.8023 426.213 74.5861C425.971 75.6977 425.814 75.7761 425.486 74.9424ZM447.775 72.4342C447.775 70.5459 450.889 60.6912 451.481 60.6912C451.794 60.6912 452.051 61.0332 452.051 61.4465C452.051 61.8598 452.336 62.0237 452.685 61.8099C453.027 61.5961 453.647 61.817 454.046 62.3016C454.566 62.9358 454.053 64.6673 452.25 68.3512C449.934 73.0969 447.775 75.0635 447.775 72.4342ZM378.657 62.608C368.745 58.2685 366.387 56.9146 367.591 56.2448C368.189 55.9099 368.681 55.2116 368.681 54.6985C368.681 54.1855 369.999 52.2687 371.61 50.4374L374.538 47.1098L379.191 54.7912C381.75 59.0167 384.329 63.0355 384.92 63.7196C386.581 65.6292 384.863 65.3228 378.657 62.608ZM504.78 56.3659C504.78 55.4539 508.763 49.5539 509.825 48.8983C510.231 48.6489 511.179 48.9838 511.92 49.6536C513.224 50.8365 513.139 50.979 509.426 54.0002C505.386 57.2923 504.78 57.5987 504.78 56.3659ZM457.039 37.3904C457.039 36.5639 460.566 18.6359 461.777 13.3059C462.397 10.5626 463.523 6.67196 464.271 4.65542L465.632 1L472.195 3.43694C475.8 4.78368 479.014 6.13756 479.335 6.45822C479.648 6.77174 478.53 8.7669 476.848 10.8761C471.311 17.8307 467.278 23.4599 462.661 30.6853C458.585 37.0627 457.039 38.9082 457.039 37.3904ZM385.918 22.9255C384.236 20.9659 382.305 19.3627 381.636 19.3627C379.704 19.3627 375.415 16.1063 373.854 13.4627L372.429 11.0471L374.111 9.68611C375.037 8.9308 376.519 7.72656 377.403 6.99975C379.277 5.47487 382.961 3.47257 383.289 3.8146C383.417 3.93574 384.792 8.37499 386.346 13.6622C390.756 28.6687 390.763 28.5476 385.918 22.9255Z" stroke="white" stroke-width="2" stroke-linejoin="bevel" mask="url(#path-1-outside-1_2383_2040)"/>
</svg>
